# xmcd
#
# Track frame offsets:
#	150
#	15207
#	34180
#	49772
#	83797
#	104875
#	117452
#	138380
#	168125
#	180647
#	221762
#	250422
#
# Disc length: 3677 seconds
#
# Revision: 1
# Processed by: cddbd v1.5.1PL0 Copyright (c) Steve Scherf et al.
# Submitted via: audiograbber 1.83.01
#
DISCID=a40e5b0c
DTITLE=Neil Yong and Crazy Horse - Like a Hurricane
DYEAR=1986
DGENRE=Blues
TTITLE0=Cinnamon girl
TTITLE1=When you dance i can really love
TTITLE2=Heart of gold
TTITLE3=Down by the river
TTITLE4=Opera star
TTITLE5=The needle and the damage done
TTITLE6=Violent side
TTITLE7=Long walk home
TTITLE8=too lonely
TTITLE9=Like a hurricane
TTITLE10=Hey hey, my my
TTITLE11=Prisoners of rock'n roll
EXTD=
EXTT0=
EXTT1=
EXTT2=
EXTT3=
EXTT4=
EXTT5=
EXTT6=
EXTT7=
EXTT8=
EXTT9=
EXTT10=
EXTT11=
PLAYORDER=
